<?xml version="1.0" encoding="iso-8859-1"?>
<!-- Generator: Adobe Illustrator 19.0.0, SVG Export Plug-In . SVG Version: 6.00 Build 0)  -->
<svg version="1.1" class="mainIcon" id="Layer_1" xmlns="http://www.w3.org/2000/svg" xmlns:xlink="http://www.w3.org/1999/xlink" x="0px" y="0px"
	 viewBox="0 0 126.282 127.494" style="enable-background:new 0 0 126.282 127.494;" xml:space="preserve">
<g id="XMLID_37_">
	<path id="XMLID_35_" style="fill:none;stroke:#000000;stroke-miterlimit:10;" d="M90.231,110.744
		c1.801-0.161,5.537-0.742,9.333-3.333c4.463-3.047,6.396-7.089,7.083-8.75c0.083-24.75,0.167-49.5,0.25-74.25
		c-1.129-1.992-2.828-4.504-5.333-7c-3.617-3.603-7.37-5.632-9.917-6.75C69.509,10.8,47.37,10.939,25.231,11.078
		c-2.216,0.793-6.106,2.479-9.75,6c-3.317,3.205-5.083,6.57-6.083,8.667c0,24.111,0,48.222,0,72.333
		c1,1.748,2.101,5.202,5.417,8.333c3.053,2.883,6.303,4.129,8.042,4.667C45.3,110.967,67.787,110.855,90.231,110.744z"/>
	<path id="XMLID_36_" style="fill:none;stroke:#000000;stroke-miterlimit:10;" d="M60.648,52.661c1.514-1.607-1.858-5.852,0.5-10.5
		c2.212-4.36,7.661-5.518,8.75-5.75c7.398-1.573,13.279,3.279,14.125,4c2.583-0.604,5.167-1.208,7.75-1.813
		c-1.396,1.792-2.792,3.583-4.188,5.375c0.063,0.542,0.125,1.083,0.188,1.625c1.5-0.229,3-0.458,4.5-0.688
		c-0.915,1.102-2.205,2.823-3.375,5.125c-2.288,4.503-2.479,8.007-3.25,11.625c0,0-1.337,6.273-5.438,13.25
		c-1.726,2.936-6.991,10.501-21.312,14.75c-6.278-0.028-12.556-0.056-18.833-0.083c-3.847-2.306-7.694-4.611-11.542-6.917
		c3.051,0.577,7.604,0.984,12.708-0.417c4.013-1.101,8.252-3.289,8-4.333c-0.206-0.856-3.231-0.137-6.667-1.167
		c-4.456-1.335-7.356-4.936-9.167-7.958c5.41,0.801,6.869,0.576,7,0.125c0.253-0.874-4.65-2.011-7.5-6.167
		c-1.841-2.684-2.214-5.736-2.167-8.167c1.923,1.537,4.104,3.121,4.542,2.708c0.452-0.426-1.329-2.627-2.375-5
		c-1.219-2.766-1.974-6.982,0-13.375C52.148,52.185,58.98,54.432,60.648,52.661z"/>
</g>
</svg>
