<?xml version="1.0" encoding="iso-8859-1"?>
<!-- Generator: Adobe Illustrator 19.0.0, SVG Export Plug-In . SVG Version: 6.00 Build 0)  -->
<svg version="1.1" class="mainIcon" id="Layer_1" xmlns="http://www.w3.org/2000/svg" xmlns:xlink="http://www.w3.org/1999/xlink" x="0px" y="0px"
	 viewBox="0 0 125.5 126" style="enable-background:new 0 0 125.5 126;" xml:space="preserve">
<g id="XMLID_24_">
	<path id="XMLID_19_" style="fill:none;stroke:#000000;stroke-miterlimit:10;" d="M96.833,111.333
		c1.801-0.161,5.537-0.742,9.333-3.333c4.463-3.047,6.396-7.089,7.083-8.75c0.083-24.75,0.167-49.5,0.25-74.25
		c-1.129-1.992-2.828-4.504-5.333-7c-3.617-3.603-7.37-5.632-9.917-6.75c-22.139,0.139-44.278,0.278-66.417,0.417
		c-2.216,0.793-6.106,2.479-9.75,6C18.766,20.872,17,24.237,16,26.333c0,24.111,0,48.222,0,72.333c1,1.748,2.101,5.202,5.417,8.333
		c3.053,2.883,6.303,4.129,8.042,4.667C51.903,111.556,74.389,111.444,96.833,111.333z"/>
	<path id="XMLID_20_" style="fill:none;stroke:#000000;stroke-miterlimit:10;" d="M69,49.667c2.179-0.027,5.481,0.188,9.25,1.458
		c3.622,1.221,6.299,2.953,8,4.25c3.174-2.337,7.426-1.96,9.75,0.458c2.756,2.868,2.447,8.243-1.375,11.104
		c0.055,2.448-0.253,5.747-1.813,9.188C87.878,87.015,74.97,89.267,73.5,89.5c-5.896-0.021-11.792-0.042-17.688-0.063
		c-1.951-0.343-9.134-1.848-14.479-8.438c-4.113-5.07-4.948-10.45-5.167-12.667c-3.571-2.46-5.104-6.605-4-9.667
		c1.457-4.04,7.649-6.593,13.167-3.5c1.684-1.326,4.593-3.282,8.667-4.5c4.05-1.211,7.536-1.18,9.667-1
		c0.778-5.944,1.556-11.889,2.333-17.833c4.556,0.5,9.111,1,13.667,1.5c0.405-0.554,1.098-1.326,2.167-1.833
		c2.588-1.23,6.718-0.596,8.333,2.5c1.103,2.115,0.829,4.985-1,6.833c-2.379,2.404-6.236,1.917-8,0.333
		c-1.441-1.293-0.863-2.758-2-4.167c-1.145-1.418-3.829-2.531-10.667-1C68.667,40.556,68.833,45.111,69,49.667z"/>
	<ellipse id="XMLID_21_" style="fill:none;stroke:#000000;stroke-miterlimit:10;" cx="76.438" cy="65.944" rx="4.896" ry="5.056"/>
	<ellipse id="XMLID_22_" style="fill:none;stroke:#000000;stroke-miterlimit:10;" cx="54.438" cy="65.944" rx="4.896" ry="5.056"/>
	<path id="XMLID_23_" style="fill:none;stroke:#000000;stroke-miterlimit:10;" d="M72,80.167c-4.514-0.028-9.028-0.056-13.542-0.083
		c-3.292-2.554-5.264-3.554-5.917-3c-0.252,0.214-0.307,0.658-0.167,1.333c0.678,0.594,1.372,1.192,2.083,1.792
		c0.94,0.792,1.871,1.556,2.792,2.292c5.514,0,11.028,0,16.542,0c0.464-0.47,0.939-0.983,1.417-1.542
		c0.812-0.95,1.501-1.879,2.083-2.75c-0.059-0.81-0.311-1.121-0.542-1.25C75.523,76.276,72.598,79.496,72,80.167z"/>
</g>
</svg>
