<?xml version="1.0" encoding="iso-8859-1"?>
<!-- Generator: Adobe Illustrator 19.0.0, SVG Export Plug-In . SVG Version: 6.00 Build 0)  -->
<svg version="1.1" id="Layer_1" xmlns="http://www.w3.org/2000/svg" xmlns:xlink="http://www.w3.org/1999/xlink" x="0px" y="0px"
	 viewBox="0 0 130 130" style="enable-background:new 0 0 130 130;" xml:space="preserve">
<g id="XMLID_10_">
	<path id="XMLID_2_" style="fill:none;stroke:#000000;stroke-miterlimit:10;" d="M97.333,112.333
		c1.801-0.161,5.537-0.742,9.333-3.333c4.463-3.047,6.396-7.089,7.083-8.75c0.083-24.75,0.167-49.5,0.25-74.25
		c-1.129-1.992-2.828-4.504-5.333-7c-3.617-3.603-7.37-5.632-9.917-6.75c-22.139,0.139-44.278,0.278-66.417,0.417
		c-2.216,0.793-6.106,2.479-9.75,6c-3.317,3.205-5.083,6.57-6.083,8.667c0,24.111,0,48.222,0,72.333
		c1,1.748,2.101,5.202,5.417,8.333c3.053,2.883,6.303,4.129,8.042,4.667C52.403,112.556,74.889,112.444,97.333,112.333z"/>
	<path id="XMLID_5_" style="fill:none;stroke:#000000;stroke-miterlimit:10;" d="M83.333,93C87.263,80.966,90.744,67.249,93,52
		c0.711-4.807,1.258-9.478,1.667-14c-21.444,7.556-42.889,15.111-64.333,22.667c-1.223,0.539-1.936,1.815-1.75,3.083
		c0.166,1.133,1.022,2.074,2.167,2.375c5.5,1.792,11,3.583,16.5,5.375C48.833,77.667,50.417,83.833,52,90
		c1.191,0.729,3.175,1.755,4.333,1c3.113-2.029-2.821-14.915-0.667-16c0.692-0.348,1.667,0.797,10.224,7.811
		c0,0,0.636,0.522,1.237,1.011C69.959,86.13,74.748,89.286,83.333,93z"/>
	<g id="XMLID_7_">
		<path id="XMLID_6_" style="fill:none;stroke:#000000;stroke-miterlimit:10;" d="M64.833,82c-2.639,2.639-5.278,5.278-7.917,7.917
			C59.556,87.278,62.194,84.639,64.833,82z"/>
	</g>
	<line id="XMLID_8_" style="fill:none;stroke:#000000;stroke-miterlimit:10;" x1="55.083" y1="75.583" x2="79.333" y2="56.333"/>
	<line id="XMLID_9_" style="fill:none;stroke:#000000;stroke-miterlimit:10;" x1="79.333" y1="56.333" x2="47.25" y2="71.5"/>
</g>
</svg>
