<?xml version="1.0" encoding="iso-8859-1"?>
<!-- Generator: Adobe Illustrator 19.0.0, SVG Export Plug-In . SVG Version: 6.00 Build 0)  -->
<svg version="1.1" id="Layer_1" xmlns="http://www.w3.org/2000/svg" xmlns:xlink="http://www.w3.org/1999/xlink" x="0px" y="0px"
	 viewBox="0 0 126 134" style="enable-background:new 0 0 126 134;" xml:space="preserve">
<g id="XMLID_19_">
	<path id="XMLID_17_" style="fill:none;stroke:#000000;stroke-miterlimit:10;" d="M96.333,116.333
		c1.801-0.161,5.537-0.742,9.333-3.333c4.463-3.047,6.396-7.089,7.083-8.75c0.083-24.75,0.167-49.5,0.25-74.25
		c-1.129-1.992-2.828-4.504-5.333-7c-3.617-3.603-7.37-5.632-9.917-6.75c-22.139,0.139-44.278,0.278-66.417,0.417
		c-2.216,0.793-6.106,2.479-9.75,6c-3.317,3.205-5.083,6.57-6.083,8.667c0,24.111,0,48.222,0,72.333
		c1,1.748,2.101,5.202,5.417,8.333c3.053,2.883,6.303,4.129,8.042,4.667C51.403,116.556,73.889,116.444,96.333,116.333z"/>
	<path id="XMLID_18_" style="fill:none;stroke:#000000;stroke-miterlimit:10;" d="M64.5,59.25c10.417-7,20.833-14,31.25-21
		C96,49.833,96.25,61.417,96.5,73c-4.91,4.255-9.91,8.605-15,12.891C76.85,89.806,72.224,93.5,67.625,97.5c-1.896,0-3.792,0-5.688,0
		c-4.646-4-9.334-7.946-14.062-11.891C43.068,81.6,38.277,77.592,33.5,73.664c-0.167-11.667-0.333-23.415-0.5-35.082
		C43.5,45.499,54,52.333,64.5,59.25z"/>
</g>
</svg>
