<?xml version="1.0" encoding="iso-8859-1"?>
<!-- Generator: Adobe Illustrator 19.0.0, SVG Export Plug-In . SVG Version: 6.00 Build 0)  -->
<svg version="1.1" class="mainIcon" id="Layer_1" xmlns="http://www.w3.org/2000/svg" xmlns:xlink="http://www.w3.org/1999/xlink" x="0px" y="0px"
	 viewBox="0 0 115.494 124.494" style="enable-background:new 0 0 115.494 124.494;" xml:space="preserve">
<g id="XMLID_42_">
	<path id="XMLID_37_" style="fill:none;stroke:#000000;stroke-miterlimit:10;" d="M90.241,113.243
		c1.801-0.161,5.537-0.742,9.333-3.333c4.463-3.047,6.396-7.089,7.083-8.75c0.083-24.75,0.167-49.5,0.25-74.25
		c-1.129-1.992-2.828-4.504-5.333-7c-3.617-3.603-7.37-5.632-9.917-6.75c-22.139,0.139-44.278,0.278-66.417,0.417
		c-2.216,0.793-6.106,2.479-9.75,6c-3.317,3.205-5.083,6.57-6.083,8.667c0,24.111,0,48.222,0,72.333
		c1,1.748,2.101,5.202,5.417,8.333c3.053,2.883,6.303,4.129,8.042,4.667C45.31,113.465,67.796,113.354,90.241,113.243z"/>
	<path id="XMLID_39_" style="fill:none;stroke:#000000;stroke-miterlimit:10;" d="M55.741,54.41
		c2.111-1.556,4.222-3.111,6.333-4.667c-1.157-1.303-5.285-5.623-12.167-6.667c-5.265-0.798-9.417,0.734-11.167,1.5
		c-1.973,0.981-5.008,2.803-7.833,6c-2.225,2.518-3.55,5.019-4.333,6.833c0.111,4.722,0.222,9.444,0.333,14.167
		c0.846,1.956,2.516,5.14,5.667,8.167c3.333,3.202,6.795,4.758,8.833,5.5c4.056-0.056,8.111-0.111,12.167-0.167
		c0.932-0.281,11.315-3.597,14.167-13.5c1.327-4.608,0.446-8.637-0.167-10.667c-6.722-0.056-13.444-0.111-20.167-0.167
		c0,2.5,0,5,0,7.5c3.222,0.056,6.444,0.111,9.667,0.167c-0.163,1.269-0.709,3.995-2.917,6c-3.701,3.362-9.776,2.616-13.542,0
		c-4.999-3.474-6.253-10.471-4.021-15.5c1.619-3.647,4.655-5.322,5.313-5.667C46.092,51.046,51.38,51.507,55.741,54.41z"/>
	<path id="XMLID_41_" style="fill:none;stroke:#000000;stroke-miterlimit:10;" d="M78.408,55.41h7v6h5v7h-5v5h-7v-5
		c-1.75,0.021-3.5,0.042-5.25,0.063c0.021-2.354,0.042-4.708,0.062-7.063c1.729,0,3.458,0,5.188,0V55.41z"/>
</g>
</svg>
