<?xml version="1.0" encoding="iso-8859-1"?>
<!-- Generator: Adobe Illustrator 19.0.0, SVG Export Plug-In . SVG Version: 6.00 Build 0)  -->
<svg version="1.1" id="Layer_1" xmlns="http://www.w3.org/2000/svg" xmlns:xlink="http://www.w3.org/1999/xlink" x="0px" y="0px"
	 viewBox="0 0 132 123.5" style="enable-background:new 0 0 132 123.5;" xml:space="preserve">
<g id="XMLID_14_">
	<path id="XMLID_2_" style="fill:none;stroke:#000000;stroke-miterlimit:10;" d="M97.333,110.333
		c1.801-0.161,5.537-0.742,9.333-3.333c4.463-3.047,6.396-7.089,7.083-8.75c0.083-24.75,0.167-49.5,0.25-74.25
		c-1.129-1.992-2.828-4.504-5.333-7c-3.617-3.603-7.37-5.632-9.917-6.75c-22.139,0.139-44.278,0.278-66.417,0.417
		c-2.216,0.793-6.106,2.479-9.75,6c-3.317,3.205-5.083,6.57-6.083,8.667c0,24.111,0,48.222,0,72.333
		c1,1.748,2.101,5.202,5.417,8.333c3.053,2.883,6.303,4.129,8.042,4.667C52.403,110.556,74.889,110.444,97.333,110.333z"/>
	<path id="XMLID_10_" style="fill:none;stroke:#000000;stroke-miterlimit:10;" d="M41.667,68c-0.014,1.979-0.028,3.958-0.042,5.938
		c-0.514,1.517-1.94,2.549-3.542,2.563c-1.6,0.013-3.043-0.993-3.583-2.5c0-9.667,0-19.333,0-29c0.48-1.35,1.702-2.304,3.125-2.438
		c1.406-0.132,2.77,0.558,3.5,1.771c-0.086,7.591,0.093,13.283,0.5,13.417c0.493,0.161,0.972,0.093,0.972,0.093
		s0.029-0.004,0.059-0.009c0.509-0.089,3.336-4.015,4.332-5.412c0.12-0.108,0.236-0.191,0.34-0.255
		c1.974-1.218,6.075,0.304,6.547,2.458c0.207,0.944-0.596,2.1-2.21,4.375c-1.028,1.449-1.983,2.574-2.666,3.333
		c2.125,2.556,4.25,5.111,6.376,7.667c0.216,2.389-0.418,4.698-1.875,5.5c-2.035,1.12-6.132-0.444-8.167-5
		c-0.486-0.813-0.972-1.625-1.458-2.438C43.139,68.042,42.403,68.021,41.667,68z"/>
	<path id="XMLID_11_" style="fill:none;stroke:#000000;stroke-miterlimit:10;" d="M77.667,68c-0.014,1.979-0.028,3.958-0.042,5.938
		c-0.514,1.517-1.94,2.549-3.542,2.563c-1.6,0.013-3.043-0.993-3.583-2.5c0-9.667,0-19.333,0-29c0.48-1.35,1.702-2.304,3.125-2.438
		c1.406-0.132,2.77,0.558,3.5,1.771c-0.086,7.591,0.093,13.283,0.5,13.417c0.493,0.161,0.972,0.093,0.972,0.093
		s0.029-0.004,0.059-0.009c0.509-0.089,3.336-4.015,4.332-5.412c0.12-0.108,0.236-0.191,0.34-0.255
		c1.974-1.218,6.075,0.304,6.547,2.458c0.207,0.944-0.596,2.1-2.21,4.375c-1.028,1.449-1.983,2.574-2.666,3.333
		c2.125,2.556,4.25,5.111,6.376,7.667c0.216,2.389-0.418,4.698-1.875,5.5c-2.035,1.12-6.132-0.444-8.167-5
		c-0.486-0.813-0.972-1.625-1.458-2.438C79.139,68.042,78.403,68.021,77.667,68z"/>
	<path id="XMLID_12_" style="fill:none;stroke:#000000;stroke-miterlimit:10;" d="M61.458,51.333
		c1.555-0.174,3.166,0.754,3.958,2.333c0.028,6.417,0.056,12.833,0.083,19.25c-0.318,1.881-1.919,3.244-3.708,3.25
		c-1.565,0.005-3.01-1.031-3.563-2.583c0.028-6.611,0.004-13.222,0.031-19.833c0.003-0.006,0.008-0.016,0.014-0.028
		C58.752,52.747,59.901,51.507,61.458,51.333z"/>
	<path id="XMLID_13_" style="fill:none;stroke:#000000;stroke-miterlimit:10;" d="M95.687,58.5c2.072,0.248,3.858,2.118,3.75,4.375
		c-0.108,2.269-2.085,4.017-4.312,4c-2.281-0.018-4.184-1.883-4.25-4.063C90.799,60.291,93.206,58.203,95.687,58.5z"/>
</g>
</svg>
