<?xml version="1.0" encoding="iso-8859-1"?>
<!-- Generator: Adobe Illustrator 19.0.0, SVG Export Plug-In . SVG Version: 6.00 Build 0)  -->
<svg version="1.1" class="mainIcon" id="Layer_1" xmlns="http://www.w3.org/2000/svg" xmlns:xlink="http://www.w3.org/1999/xlink" x="0px" y="0px"
	 viewBox="0 0 126 128" style="enable-background:new 0 0 126 128;" xml:space="preserve">
<g id="XMLID_2_">
	<g id="XMLID_30_">
		<g id="XMLID_24_">
			<path id="XMLID_4_" d="M96.333,121.833c7.219-0.811,16.252-5.801,17.917-13.583c0.631-2.948,0.023-6.783,0.033-9.77
				c0.011-3.257,0.022-6.513,0.033-9.77c0.026-7.816,0.053-15.632,0.079-23.447c0.024-7.164,0.048-14.329,0.072-21.493
				c0.01-2.945,0.807-6.97,0.033-9.77c-0.441-1.595-1.601-3.052-2.59-4.372c-3.038-4.058-7.562-8.32-12.394-10.21
				c-5.269-2.061-12.747-0.599-18.37-0.564c-14.651,0.092-29.301,0.184-43.952,0.276c-5.292,0.033-8.463,0.415-12.942,3.467
				c-3.892,2.653-7.789,6.688-9.635,11.136C12.627,38.531,14,45.835,14,50.973c0,7.168,0,14.336,0,21.505s0,14.336,0,21.505
				c0,5.601-1.139,11.949,1.484,17.021c2.401,4.643,6.061,8.249,10.897,10.303c5.586,2.372,13.463,0.807,19.418,0.778
				C62.643,122,79.488,121.917,96.333,121.833c1.93-0.01,1.934-3.01,0-3c-11.89,0.059-23.78,0.118-35.67,0.176
				c-5.946,0.029-11.892,0.059-17.838,0.088c-5.838,0.029-12.755,1.292-17.89-1.908c-3.973-2.476-7.437-6.752-7.936-11.478
				c-0.636-6.031,0-12.502,0-18.572c0-11.73,0-23.459,0-35.189c0-2.932,0-5.865,0-8.797c0-2.439-0.503-5.558,0.208-7.906
				c1.55-5.12,7.267-9.72,11.785-11.967c4.734-2.355,11.802-1.173,16.992-1.205c6.186-0.039,12.372-0.078,18.558-0.116
				c5.535-0.035,11.069-0.069,16.604-0.104c5.368-0.034,13.013-1.401,17.963,0.711c4.236,1.807,9.643,6.344,11.626,10.601
				c2.242,4.812,0.724,13.135,0.706,18.42c-0.044,13.026-0.088,26.053-0.132,39.079c-0.011,3.257-0.022,6.513-0.033,9.77
				c-0.009,2.743,0.499,6.18-0.602,8.71c-2.398,5.508-8.593,9.044-14.341,9.689C94.436,119.046,94.415,122.049,96.333,121.833z"/>
		</g>
	</g>
	<g id="XMLID_31_">
		<g id="XMLID_18_">
			<path id="XMLID_22_" d="M82.5,97c-12.591,0-25.412,0.756-37.976,0C36.964,96.545,37,90.467,37,84.705c0-8.05,0-16.1,0-24.15
				c0-4.865-1.63-13.738,2.993-17.005c4.192-2.963,13.116-1.299,17.848-1.299c7.628,0,15.26-0.071,22.888,0
				c6.383,0.06,8.771,3.946,8.771,9.838c0,8.869,0,17.738,0,26.607C89.5,84.887,91.619,96.505,82.5,97
				c-6.401,0.348-6.441,10.35,0,10c6.947-0.377,13.107-4.114,15.749-10.726c1.265-3.166,1.251-6.345,1.251-9.667
				c0-9.124,0-18.248,0-27.372c0-8.403,0.986-17.253-6.389-23.198c-6.444-5.194-15.759-3.788-23.499-3.788
				c-8.348,0-16.743-0.266-25.088,0C34.066,32.584,27.122,40.197,27,50.506c-0.102,8.632,0,17.271,0,25.903
				c0,7.411-1.408,16.743,3.006,23.19C36.138,108.554,47.02,107,56.416,107c8.695,0,17.39,0,26.084,0C88.935,107,88.945,97,82.5,97z
				"/>
		</g>
	</g>
	<g id="XMLID_32_">
		<g id="XMLID_12_">
			<path id="XMLID_5_" d="M73,70c-0.563,13.442-20.5,13.558-20.5,0C52.5,56.446,72.437,56.547,73,70c0.268,6.412,10.27,6.446,10,0
				c-0.461-11.022-8.794-20.5-20.25-20.5C51.643,49.5,42.5,58.966,42.5,70c0,11.035,9.144,20.5,20.25,20.5
				C74.206,90.5,82.539,81.021,83,70C83.269,63.565,73.269,63.578,73,70z"/>
		</g>
	</g>
	<ellipse id="XMLID_34_" style="stroke:#000000;stroke-miterlimit:10;" cx="82.083" cy="51.333" rx="2.917" ry="3.333"/>
</g>
</svg>
