<?xml version="1.0" encoding="iso-8859-1"?>
<!-- Generator: Adobe Illustrator 19.0.0, SVG Export Plug-In . SVG Version: 6.00 Build 0)  -->
<svg version="1.1" id="Layer_1" xmlns="http://www.w3.org/2000/svg" xmlns:xlink="http://www.w3.org/1999/xlink" x="0px" y="0px"
	 viewBox="0 0 130.493 130.493" style="enable-background:new 0 0 130.493 130.493;" xml:space="preserve">
<g id="XMLID_30_">
	<path id="XMLID_25_" style="fill:none;stroke:#000000;stroke-miterlimit:10;" d="M100.231,115.242
		c1.801-0.161,5.537-0.742,9.333-3.333c4.463-3.047,6.396-7.089,7.083-8.75c0.083-24.75,0.167-49.5,0.25-74.25
		c-1.129-1.992-2.828-4.504-5.333-7c-3.617-3.603-7.37-5.632-9.917-6.75c-22.139,0.139-44.278,0.278-66.417,0.417
		c-2.216,0.793-6.106,2.479-9.75,6c-3.317,3.205-5.083,6.57-6.083,8.667c0,24.111,0,48.222,0,72.333
		c1,1.748,2.101,5.202,5.417,8.333c3.053,2.883,6.303,4.129,8.042,4.667C55.301,115.464,77.787,115.353,100.231,115.242z"/>
	<path id="XMLID_26_" style="fill:none;stroke:#000000;stroke-miterlimit:10;" d="M94.773,39.034
		c-0.042,12.125-0.083,24.5-0.125,36.625c-5,4.917-10,9.833-15,14.75c-3.958,0-7.917,0-11.875,0c-0.874,1-1.83,2.413-2.875,3.797
		c-0.925,1.225-1.845,2.125-2.75,3.203c-3.25,0-6.5,0-9.75,0c0-2,0-4.875,0-7.25c-4,0.083-8.833,0.167-13.375,0.25
		c0.083-14.583,0.292-29.167,0.375-43.75c1.208-2.583,2.479-5.167,3.687-7.75C60.294,38.95,77.565,38.992,94.773,39.034z"/>
	<path id="XMLID_27_" style="fill:none;stroke:#000000;stroke-miterlimit:10;" d="M59.19,86.992
		c1.986-2.528,3.972-5.056,5.958-7.583c5.125,0,10.25,0,15.375,0c3-2,6-4.875,9-7.375c-0.083-9.25-0.167-18.375-0.25-27.625
		c-13.542,0-27.083,0-40.625,0c-0.006,1.545-0.057,15.445-0.063,17.031c-0.006,1.715-0.057,16.203-0.062,17.969
		c3.5,0.063,7,0.125,10.5,0.188C59.079,82.062,59.134,84.527,59.19,86.992z"/>
	
		<rect id="XMLID_28_" x="61.231" y="52.575" style="fill:none;stroke:#000000;stroke-miterlimit:10;" width="5.917" height="16.792"/>
	
		<rect id="XMLID_29_" x="75.231" y="52.575" style="fill:none;stroke:#000000;stroke-miterlimit:10;" width="5.917" height="16.792"/>
</g>
</svg>
