<?xml version="1.0" encoding="iso-8859-1"?>
<!-- Generator: Adobe Illustrator 19.0.0, SVG Export Plug-In . SVG Version: 6.00 Build 0)  -->
<svg version="1.1" id="Layer_1" xmlns="http://www.w3.org/2000/svg" xmlns:xlink="http://www.w3.org/1999/xlink" x="0px" y="0px"
	 viewBox="0 0 132.5 131.678" style="enable-background:new 0 0 132.5 131.678;" xml:space="preserve">
<ellipse id="XMLID_55_" style="fill:none;stroke:#000000;stroke-miterlimit:10;" cx="46.667" cy="55.178" rx="18.5" ry="18.167"/>
<path id="XMLID_42_" style="fill:none;stroke:#000000;stroke-miterlimit:10;" d="M96.833,116.511
	c1.801-0.161,5.537-0.742,9.333-3.333c4.463-3.047,6.396-7.089,7.083-8.75c0.083-24.75,0.167-49.5,0.25-74.25
	c-1.129-1.992-2.828-4.505-5.333-7c-3.617-3.603-7.37-5.632-9.917-6.75c-22.139,0.139-44.278,0.278-66.417,0.417
	c-2.216,0.793-6.106,2.479-9.75,6C18.766,26.05,17,29.415,16,31.511c0,24.111,0,48.222,0,72.333c1,1.748,2.101,5.202,5.417,8.333
	c3.053,2.883,6.303,4.129,8.042,4.667C51.903,116.733,74.389,116.622,96.833,116.511z"/>
<path id="XMLID_54_" style="fill:none;stroke:#000000;stroke-miterlimit:10;" d="M-7.75,127.678"/>
<path id="XMLID_48_" style="fill:none;stroke:#000000;stroke-miterlimit:10;" d="M64.667,46.594
	c0.86-0.022,10.351-0.141,14.417,5.833c1.66,2.439,1.534,4.6,3.917,6c2.037,1.197,3.627,0.575,6,0.75
	c4.768,0.351,9.344,4.481,11.25,8.75c2.831,6.34,0.311,14.004-4.5,18.25c-3.125,2.758-6.632,3.56-8.417,3.833
	c-13.194-0.028-26.389-0.056-39.583-0.083c-1.008-0.124-5.301-0.767-8.25-4.5c-3.258-4.125-3.488-10.266-0.917-13.667
	c2.465-3.26,6.2-2.279,7.917-5.833c1.065-2.205-0.12-3.105,0.583-6.333c1.061-4.867,4.857-7.878,6.167-8.917
	C57.829,47.046,62.787,46.642,64.667,46.594z"/>
</svg>
