<?xml version="1.0" encoding="iso-8859-1"?>
<!-- Generator: Adobe Illustrator 19.0.0, SVG Export Plug-In . SVG Version: 6.00 Build 0)  -->
<svg version="1.1" class="mainIcon" id="Layer_1" xmlns="http://www.w3.org/2000/svg" xmlns:xlink="http://www.w3.org/1999/xlink" x="0px" y="0px"
	 viewBox="0 0 126.194 136.684" style="enable-background:new 0 0 126.194 136.684;" xml:space="preserve">
<g id="XMLID_17_">
	<path id="XMLID_14_" style="fill:none;stroke:#000000;stroke-miterlimit:10;" d="M95.258,122.499
		c1.884-0.17,5.793-0.783,9.764-3.516c4.669-3.213,6.692-7.477,7.41-9.229c0.087-26.106,0.174-52.211,0.262-78.317
		c-1.181-2.101-2.959-4.751-5.579-7.383c-3.784-3.8-7.71-5.94-10.374-7.12c-23.161,0.146-46.321,0.293-69.482,0.439
		c-2.319,0.836-6.388,2.615-10.2,6.329c-3.47,3.381-5.318,6.93-6.364,9.141c0,25.432,0,50.863,0,76.295
		c1.046,1.844,2.198,5.487,5.667,8.79c3.194,3.041,6.594,4.355,8.413,4.922C48.254,122.733,71.778,122.616,95.258,122.499z"/>
	<path id="XMLID_15_" style="fill:none;stroke:#000000;stroke-miterlimit:10;" d="M67.448,37.684c-3.444,0-6.887,0-10.331,0
		c-1.916,0-5.228,1.612-8.369,4.524c-2.017,1.869-3.312,3.74-4.119,5.201c0.243,5.45,0.487,10.276,0.73,16.276
		c-3.098,0-6.197,0-9.296,0c-0.782,1-0.634,2.532-0.523,2.994c0.586,2.444,4.025,4.32,8.5,3.936
		c-0.379,1.772-1.591,6.287-5.623,10.274c-4.086,4.041-8.689,5.186-10.462,5.533c0.002,0.251,0.05,2.065,1.569,3.294
		c1.263,1.021,2.686,0.947,3.008,0.922c1.729,0.073,3.458,0.146,5.187,0.219c0.276,1.685,0.552,3.369,0.828,5.054
		c3.444-0.176,6.887-0.352,10.331-0.528c2.354,2.066,4.708,4.131,7.062,6.197c3.836-0.088,7.672,0.041,11.508-0.047
		c2.703-2.022,5.405-3.848,8.108-5.848c3.429,0,6.858,0,10.287,0c-0.027-3,0.714-3.78,1.351-4.304
		c1.343-1.105,3.15-0.578,4.765-0.722c0.896-0.08,1.493-0.319,2.035-0.837c1.005-0.96,0.965-2.484,0.915-3.087
		c-2.092-0.624-4.185-1.249-6.277-1.873c-1.368-0.858-3.249-2.287-4.969-4.496c-2.736-3.514-3.58-7.136-3.879-9.016
		c3.194,0.525,6.165-0.938,7.279-3.387c0.962-2.115,0.181-4.227-0.023-4.748c-2.092,0.073-4.346,0.145-7.346,0.218
		c0-4.746,0-9.493,0-14.239c-1-1.726-2.193-4.307-4.946-6.985C71.995,39.53,69.185,37.684,67.448,37.684z"/>
</g>
</svg>
